<svg xmlns="http://www.w3.org/2000/svg" width="66" height="76" viewBox="0 0 66 76" fill="none">
<g clip-path="url(#clip0_869_220)">
<path d="M65.1001 45.6155C64.1318 44.3954 62.3918 44.1163 61.0916 44.9748L33.0359 65.5789V66.3676C34.6194 66.1794 36.0529 67.4037 36.241 68.9875C36.4292 70.5713 35.2981 72.0049 33.7146 72.1931C33.4883 72.2206 33.2621 72.2206 33.0359 72.1931C33.6871 72.1952 34.3213 71.9838 34.8393 71.5926L64.5378 50.0264C65.9014 49.0389 66.2059 47.1359 65.2185 45.772C65.1805 45.7191 65.1403 45.6663 65.098 45.6176L65.1001 45.6155Z" fill="#669DF6"/>
<path d="M33.0358 72.1931C31.4523 72.3813 30.0188 71.25 29.8306 69.6662C29.6425 68.0825 30.7736 66.6488 32.3571 66.4606C32.5834 66.4331 32.8096 66.3062 33.0358 66.3337V66.3528V65.5788L4.98011 44.9748C3.58473 44.0232 1.68404 44.3827 0.732645 45.7762C-0.218754 47.1718 0.140663 49.0728 1.53393 50.0243L31.2725 71.9521C31.78 72.339 32.3994 72.5505 33.0358 72.5526V72.191V72.1931Z" fill="#AECBFA"/>
<path d="M33.0359 63.4136C29.7821 63.4136 27.1436 66.0525 27.1436 69.3068C27.1436 72.5611 29.7821 75.2 33.0359 75.2C36.2897 75.2 38.9282 72.5611 38.9282 69.3068C38.9282 66.0525 36.2897 63.4136 33.0359 63.4136ZM33.0359 72.1931C31.4418 72.1931 30.15 70.9012 30.15 69.3068C30.15 67.7124 31.4418 66.4204 33.0359 66.4204C34.63 66.4204 35.9218 67.7124 35.9218 69.3068C35.9218 70.9012 34.63 72.1931 33.0359 72.1931Z" fill="#4285F4"/>
<path d="M8.98884 14.3902C7.32918 14.3902 5.98242 13.0432 5.98242 11.3833V3.84708C5.98242 2.18717 7.32918 0.84021 8.98884 0.84021C10.6485 0.84021 11.9953 2.18717 11.9953 3.84708V11.3833C11.9741 13.0347 10.64 14.369 8.98884 14.3902Z" fill="#AECBFA"/>
<path d="M8.90841 41.046C10.591 41.046 11.955 39.6818 11.955 37.999C11.955 36.3161 10.591 34.9519 8.90841 34.9519C7.22582 34.9519 5.86182 36.3161 5.86182 37.999C5.86182 39.6818 7.22582 41.046 8.90841 41.046Z" fill="#AECBFA"/>
<path d="M8.90841 32.1882C10.591 32.1882 11.955 30.824 11.955 29.1412C11.955 27.4583 10.591 26.0941 8.90841 26.0941C7.22582 26.0941 5.86182 27.4583 5.86182 29.1412C5.86182 30.824 7.22582 32.1882 8.90841 32.1882Z" fill="#AECBFA"/>
<path d="M8.90841 23.2882C10.591 23.2882 11.955 21.924 11.955 20.2411C11.955 18.5583 10.591 17.1941 8.90841 17.1941C7.22582 17.1941 5.86182 18.5583 5.86182 20.2411C5.86182 21.924 7.22582 23.2882 8.90841 23.2882Z" fill="#AECBFA"/>
<path d="M57.085 23.2078C55.419 23.1867 54.0786 21.8291 54.0786 20.1608V12.6245C54.0786 10.9646 55.4254 9.61768 57.085 9.61768C58.7447 9.61768 60.0915 10.9646 60.0915 12.6245V20.1608C60.1126 21.8207 58.7849 23.1845 57.1252 23.2078C57.1125 23.2078 57.0977 23.2078 57.085 23.2078Z" fill="#4285F4"/>
<path d="M57.1655 41.0862C58.8481 41.0862 60.2121 39.722 60.2121 38.0391C60.2121 36.3563 58.8481 34.9921 57.1655 34.9921C55.4829 34.9921 54.1189 36.3563 54.1189 38.0391C54.1189 39.722 55.4829 41.0862 57.1655 41.0862Z" fill="#4285F4"/>
<path d="M57.1655 32.1079C58.8481 32.1079 60.2121 30.7437 60.2121 29.0608C60.2121 27.378 58.8481 26.0138 57.1655 26.0138C55.4829 26.0138 54.1189 27.378 54.1189 29.0608C54.1189 30.7437 55.4829 32.1079 57.1655 32.1079Z" fill="#4285F4"/>
<path d="M57.1655 6.89415C58.8481 6.89415 60.2121 5.52994 60.2121 3.8471C60.2121 2.16426 58.8481 0.800049 57.1655 0.800049C55.4829 0.800049 54.1189 2.16426 54.1189 3.8471C54.1189 5.52994 55.4829 6.89415 57.1655 6.89415Z" fill="#4285F4"/>
<path d="M33.036 50.0264C31.3974 50.0497 30.0528 48.7387 30.0295 47.0999C30.0295 47.0724 30.0295 47.047 30.0295 47.0196V39.403C30.0295 37.7431 31.3763 36.3961 33.036 36.3961C34.6956 36.3961 36.0424 37.7431 36.0424 39.403V46.9392C36.1079 48.5759 34.8352 49.9566 33.1988 50.0243C33.1438 50.0264 33.0909 50.0264 33.036 50.0264Z" fill="#669DF6"/>
<path d="M33.0358 58.8843C34.7184 58.8843 36.0824 57.52 36.0824 55.8372C36.0824 54.1544 34.7184 52.7902 33.0358 52.7902C31.3533 52.7902 29.9893 54.1544 29.9893 55.8372C29.9893 57.52 31.3533 58.8843 33.0358 58.8843Z" fill="#669DF6"/>
<path d="M33.0358 33.5902C34.7184 33.5902 36.0824 32.226 36.0824 30.5431C36.0824 28.8603 34.7184 27.4961 33.0358 27.4961C31.3533 27.4961 29.9893 28.8603 29.9893 30.5431C29.9893 32.226 31.3533 33.5902 33.0358 33.5902Z" fill="#669DF6"/>
<path d="M33.0358 24.6922C34.7184 24.6922 36.0824 23.328 36.0824 21.6452C36.0824 19.9624 34.7184 18.5981 33.0358 18.5981C31.3533 18.5981 29.9893 19.9624 29.9893 21.6452C29.9893 23.328 31.3533 24.6922 33.0358 24.6922Z" fill="#669DF6"/>
<path d="M45.0616 32.1481C43.4019 32.1481 42.0552 30.8011 42.0552 29.1412V21.605C42.0552 19.9451 43.4019 18.5981 45.0616 18.5981C46.7213 18.5981 48.068 19.9451 48.068 21.605V29.1412C48.0913 30.78 46.7805 32.1248 45.1419 32.1481C45.1145 32.1481 45.0891 32.1481 45.0616 32.1481Z" fill="#4285F4"/>
<path d="M45.1018 15.7519C46.7844 15.7519 48.1484 14.3877 48.1484 12.7049C48.1484 11.022 46.7844 9.65784 45.1018 9.65784C43.4192 9.65784 42.0552 11.022 42.0552 12.7049C42.0552 14.3877 43.4192 15.7519 45.1018 15.7519Z" fill="#4285F4"/>
<path d="M45.1018 49.8255C46.7844 49.8255 48.1484 48.4613 48.1484 46.7785C48.1484 45.0957 46.7844 43.7314 45.1018 43.7314C43.4192 43.7314 42.0552 45.0957 42.0552 46.7785C42.0552 48.4613 43.4192 49.8255 45.1018 49.8255Z" fill="#4285F4"/>
<path d="M45.1018 40.9657C46.7844 40.9657 48.1484 39.6015 48.1484 37.9186C48.1484 36.2358 46.7844 34.8716 45.1018 34.8716C43.4192 34.8716 42.0552 36.2358 42.0552 37.9186C42.0552 39.6015 43.4192 40.9657 45.1018 40.9657Z" fill="#4285F4"/>
<path d="M20.9721 49.8255C22.6547 49.8255 24.0187 48.4613 24.0187 46.7785C24.0187 45.0957 22.6547 43.7314 20.9721 43.7314C19.2895 43.7314 17.9255 45.0957 17.9255 46.7785C17.9255 48.4613 19.2895 49.8255 20.9721 49.8255Z" fill="#AECBFA"/>
<path d="M20.9721 24.6922C22.6547 24.6922 24.0187 23.328 24.0187 21.6452C24.0187 19.9624 22.6547 18.5981 20.9721 18.5981C19.2895 18.5981 17.9255 19.9624 17.9255 21.6452C17.9255 23.328 19.2895 24.6922 20.9721 24.6922Z" fill="#AECBFA"/>
<path d="M20.9721 15.7519C22.6547 15.7519 24.0187 14.3877 24.0187 12.7049C24.0187 11.022 22.6547 9.65784 20.9721 9.65784C19.2895 9.65784 17.9255 11.022 17.9255 12.7049C17.9255 14.3877 19.2895 15.7519 20.9721 15.7519Z" fill="#AECBFA"/>
<path d="M21.0122 40.9256C19.3758 40.97 18.0122 39.678 17.9678 38.0413C17.9678 38.0265 17.9678 38.0138 17.9678 37.999V30.3825C17.9678 28.7226 19.3145 27.3756 20.9742 27.3756C22.6339 27.3756 23.9806 28.7226 23.9806 30.3825V37.999C23.9383 39.6124 22.6275 40.9044 21.0144 40.9256H21.0122Z" fill="#AECBFA"/>
</g>
<defs>
<clipPath id="clip0_869_220">
<rect width="65.6" height="74.4" fill="white" transform="translate(0.199951 0.800049)"/>
</clipPath>
</defs>
</svg>